<?xml version="1.0" encoding="iso-8859-1"?>
<!-- Generator: Adobe Illustrator 19.0.0, SVG Export Plug-In . SVG Version: 6.00 Build 0)  -->
<svg version="1.1" id="Layer_1" xmlns="http://www.w3.org/2000/svg" xmlns:xlink="http://www.w3.org/1999/xlink" x="0px" y="0px"
	 viewBox="0 0 512 512" style="enable-background:new 0 0 512 512;" xml:space="preserve">
<path style="fill:#BED8E4;" d="M350.625,469.488c1.183,9.414-5.49,18.003-14.904,19.186l-97.357,12.232
	c-9.414,1.183-18.004-5.489-19.186-14.904l-55.68-443.173c-1.183-9.414,5.489-18.004,14.904-19.186l97.357-12.232
	c9.414-1.183,18.003,5.489,19.186,14.904L350.625,469.488z"/>
<path style="fill:#707682;" d="M350.625,469.488c0,0-24.438-194.504-24.455-194.645c1.192,5.82-131.429,16.655-131.033,19.809
	c0.001,0.011,24.042,191.351,24.042,191.351c1.183,9.414,9.773,16.086,19.186,14.904l97.357-12.232
	C345.135,487.493,351.808,478.903,350.625,469.488z"/>
<path style="fill:#6BE8C7;" d="M149.11,485.024c0,9.487-7.691,17.179-17.179,17.179H33.808c-9.487,0-17.179-7.691-17.179-17.179
	V38.364c0-9.487,7.691-17.179,17.179-17.179h98.122c9.487,0,17.179,7.691,17.179,17.179v446.659H149.11z"/>
<path style="fill:#FFC5E5;" d="M493.101,485.024c0,9.487-7.691,17.179-17.179,17.179H377.8c-9.487,0-17.179-7.691-17.179-17.179
	V38.364c0-9.487,7.691-17.179,17.179-17.179h98.122c9.487,0,17.179,7.691,17.179,17.179V485.024z"/>
<g>
	<polygon style="fill:#FFEFCA;" points="16.629,108.676 16.629,213.649 149.54,213.219 149.54,108.246 	"/>
	<polygon style="fill:#FFEFCA;" points="149.235,413.225 149.235,308.251 16.629,308.126 16.629,413.1 	"/>
</g>
<circle style="fill:#BED8E4;" cx="278.816" cy="431.525" r="30.183"/>
<path style="fill:#FF97CB;" d="M440.567,365.413h-28.824c-4.328,0-7.837-3.509-7.837-7.837V65.554c0-4.328,3.509-7.837,7.837-7.837
	h28.824c4.328,0,7.837,3.509,7.837,7.837v292.023C448.404,361.904,444.895,365.413,440.567,365.413z"/>
<path style="fill:#EBF9FE;" d="M277.372,404.959c-16.67,0-30.183,13.514-30.183,30.184c0,2.417,0.292,4.765,0.829,7.017
	c5.821,10.186,16.781,17.057,29.354,17.057c12.573,0,23.533-6.871,29.354-17.057c0.537-2.253,0.829-4.6,0.829-7.017
	C307.555,418.472,294.042,404.959,277.372,404.959z"/>
<g>
	<path style="fill:#3CD3A8;" d="M19.524,405.141v7.883c0,0,132.245,0.43,132.245,0c0-0.43,0-7.883,0-7.883
		S19.392,405.272,19.524,405.141z"/>
	<path style="fill:#3CD3A8;" d="M19.524,205.629v7.883c0,0,132.245,0.43,132.245,0s0-7.883,0-7.883S19.392,205.759,19.524,205.629z"
		/>
</g>
<path d="M449.743,449.292h-47.176c-4.495,0-8.139-3.643-8.139-8.139s3.644-8.139,8.139-8.139h47.176
	c4.495,0,8.139,3.643,8.139,8.139S454.238,449.292,449.743,449.292z"/>
<path d="M494.919,376.307c4.495,0,8.139-3.643,8.139-8.14V34.655c0-14.063-11.441-25.504-25.504-25.504h-99.179
	c-14.063,0-25.504,11.441-25.504,25.504V415.66l-30.39-246.398c-0.55-4.463-4.616-7.645-9.075-7.081
	c-4.462,0.55-7.633,4.612-7.081,9.074l11.815,95.796l-25.187,4.051c-0.782-7.192-3.982-30.625-17.05-126.364
	c-4.47-32.752-10.102-74.011-17.194-126.015l19.216-2.37c2.446-0.3,4.862,0.368,6.805,1.883s3.178,3.696,3.479,6.143l13.2,107.023
	c0.55,4.462,4.615,7.635,9.075,7.081c4.462-0.55,7.633-4.612,7.082-9.074l-13.2-107.023c-0.835-6.761-4.251-12.793-9.621-16.983
	c-5.371-4.191-12.052-6.04-18.812-5.206l-98.433,12.141c-6.761,0.833-12.793,4.25-16.984,9.621c-1.12,1.436-2.067,2.967-2.847,4.567
	c-3.51-9.894-12.959-17.003-24.041-17.003H34.446c-14.063,0-25.504,11.441-25.504,25.504v451.471
	C8.942,500.559,20.383,512,34.446,512h99.179c14.063,0,25.504-11.441,25.504-25.504v-24.755c0-4.496-3.644-8.139-8.14-8.139
	c-4.495,0-8.139,3.643-8.139,8.139v24.755c0,5.087-4.138,9.225-9.225,9.225H34.446c-5.087,0-9.225-4.138-9.225-9.225v-66.095H142.85
	v4.772c0,4.496,3.644,8.14,8.139,8.14c4.495,0,8.14-3.643,8.14-8.14V71.761l51.443,417.086
	c1.592,12.903,12.612,22.385,25.295,22.384c1.036,0,2.085-0.064,3.139-0.194l98.434-12.141c6.349-0.784,11.865-3.855,15.835-8.279
	c2.128,11.928,12.57,21.014,25.1,21.014h99.179c14.063,0,25.504-11.441,25.504-25.504v-67.407c0-4.496-3.644-8.139-8.139-8.139
	s-8.139,3.643-8.139,8.139v67.407c0,5.087-4.138,9.225-9.225,9.225h-99.179c-5.087,0-9.225-4.138-9.225-9.225V34.655
	c0-5.087,4.138-9.225,9.225-9.225h99.179c5.087,0,9.225,4.138,9.225,9.225v333.513C486.779,372.664,490.422,376.307,494.919,376.307
	z M142.85,203.488H25.221v-86.086H142.85V203.488z M25.221,219.767H142.85v81.991H25.221V219.767z M34.446,25.801h99.179
	c5.087,0,9.225,4.138,9.225,9.225v66.096H25.221V35.026C25.221,29.941,29.359,25.801,34.446,25.801z M25.221,404.122v-86.086H142.85
	v86.086H25.221z M259.772,146.939c14.26,104.474,16.709,122.408,17.089,126.751l-30.346,4.88c-0.56-4.387-1.502-11.514-3.085-23.495
	c-4.119-31.168-12.615-95.459-30.167-230.746l29.287-3.613C249.656,72.818,255.296,114.143,259.772,146.939z M173.346,31.974
	c1.516-1.943,3.698-3.179,6.144-3.48l17.616-2.173c17.563,135.376,26.064,199.704,30.185,230.887
	c1.647,12.463,2.605,19.713,3.143,23.949l-28.51,4.585L171.464,38.778C171.161,36.333,171.83,33.916,173.346,31.974z
	 M335.446,482.74l-98.433,12.141c-5.045,0.618-9.663-2.978-10.285-8.027l-22.81-184.945l116.215-18.692l23.34,189.236
	C344.095,477.504,340.495,482.117,335.446,482.74z"/>
<path d="M277.371,395.01c-21.131,0-38.323,17.192-38.323,38.323s17.192,38.323,38.323,38.323s38.323-17.192,38.323-38.323
	S298.502,395.01,277.371,395.01z M277.371,455.376c-12.155,0-22.044-9.888-22.044-22.044s9.889-22.044,22.044-22.044
	s22.044,9.888,22.044,22.044S289.526,455.376,277.371,455.376z"/>
<path d="M405.715,49.215c-4.495,0-8.139,3.643-8.139,8.14v307.696c0,4.496,3.644,8.139,8.139,8.139h44.497
	c4.495,0,8.139-3.643,8.139-8.139V57.354c0-4.496-3.644-8.14-8.139-8.14H405.715z M442.074,356.912h-28.218V65.494h28.218V356.912z"
	/>
<path d="M108.091,352.94H59.979c-4.495,0-8.14,3.643-8.14,8.139c0,4.496,3.644,8.14,8.14,8.14h48.112c4.495,0,8.14-3.643,8.14-8.14
	C116.231,356.583,112.586,352.94,108.091,352.94z"/>
<path d="M59.979,168.585h48.112c4.495,0,8.14-3.643,8.14-8.14c0-4.496-3.644-8.14-8.14-8.14H59.979c-4.495,0-8.14,3.643-8.14,8.14
	C51.84,164.941,55.484,168.585,59.979,168.585z"/>
<g>
</g>
<g>
</g>
<g>
</g>
<g>
</g>
<g>
</g>
<g>
</g>
<g>
</g>
<g>
</g>
<g>
</g>
<g>
</g>
<g>
</g>
<g>
</g>
<g>
</g>
<g>
</g>
<g>
</g>
</svg>
