<svg width="27" height="27" viewBox="0 0 27 27" fill="none" xmlns="http://www.w3.org/2000/svg">
<path opacity="0.4" d="M19.8089 4.60668H16.0075C15.0604 4.61294 14.1613 4.19167 13.5612 3.46053L12.3093 1.72985C11.7193 0.992295 10.8202 0.569056 9.87457 0.583704H7.18712C2.3635 0.583704 0.583349 3.41469 0.583349 8.2285V13.432C0.577347 14.0042 26.411 14.0035 26.4127 13.432V11.9191C26.4357 7.10528 24.7015 4.60668 19.8089 4.60668Z" fill="#2BE09F"/>
<path fill-rule="evenodd" clip-rule="evenodd" d="M24.9082 6.45197C25.3214 6.93516 25.6408 7.49098 25.85 8.09096C26.2615 9.32409 26.452 10.62 26.4127 11.9191V18.7043C26.4111 19.2758 26.3688 19.8465 26.2864 20.412C26.1293 21.4101 25.7782 22.368 25.2527 23.2316C25.0112 23.6487 24.718 24.0338 24.3799 24.3777C22.8495 25.7823 20.8173 26.5134 18.7409 26.4064H8.24373C6.16399 26.5126 4.12848 25.7818 2.5932 24.3777C2.25916 24.0331 1.96978 23.6481 1.73184 23.2316C1.20949 22.3686 0.865826 21.4098 0.721171 20.412C0.629192 19.8474 0.583102 19.2763 0.583352 18.7043V11.9191C0.583128 11.3524 0.6138 10.7861 0.675232 10.2228C0.68815 10.124 0.707527 10.0267 0.726702 9.93051C0.75867 9.7701 0.79008 9.61249 0.79008 9.45488C0.906664 8.77504 1.11934 8.11516 1.42175 7.49497C2.31756 5.5809 4.15513 4.60668 7.16415 4.60668H19.7975C21.4828 4.47633 23.1556 4.9837 24.4833 6.0279C24.6362 6.15755 24.7783 6.29938 24.9082 6.45197ZM7.00337 18.0739H20.0042H20.0271C20.3124 18.0863 20.5908 17.9842 20.8001 17.7904C21.0094 17.5966 21.1322 17.3272 21.1412 17.0424C21.1573 16.792 21.0749 16.5453 20.9115 16.3547C20.7235 16.0985 20.4257 15.9457 20.1075 15.9421H7.00337C6.41348 15.9421 5.93528 16.4193 5.93528 17.008C5.93528 17.5967 6.41348 18.0739 7.00337 18.0739Z" fill="#2BE09F"/>
</svg>
