<svg width="26" height="26" viewBox="0 0 26 26" fill="none" xmlns="http://www.w3.org/2000/svg">
<rect width="26" height="26" rx="4" fill="#D9D9D9" fill-opacity="0.34"/>
<path opacity="0.4" d="M18.7325 11.1163C18.7325 11.1673 18.3328 16.2229 18.1045 18.3506C17.9615 19.6563 17.1197 20.4483 15.8571 20.4708C14.887 20.4925 13.9373 20.5 13.0029 20.5C12.0109 20.5 11.0408 20.4925 10.0991 20.4708C8.87882 20.4415 8.03635 19.6338 7.90067 18.3506C7.6658 16.2154 7.27338 11.1673 7.26608 11.1163C7.25879 10.9626 7.30839 10.8163 7.40905 10.6978C7.50825 10.5883 7.65121 10.5224 7.80147 10.5224H18.2044C18.3539 10.5224 18.4896 10.5883 18.5968 10.6978C18.6967 10.8163 18.7471 10.9626 18.7325 11.1163Z" fill="white"/>
<path d="M19.75 8.48265C19.75 8.17441 19.5071 7.93291 19.2153 7.93291H17.0286C16.5836 7.93291 16.197 7.61643 16.0978 7.17019L15.9753 6.62346C15.8039 5.96273 15.2123 5.5 14.5485 5.5H11.4522C10.7811 5.5 10.1954 5.96273 10.0174 6.65946L9.90291 7.17094C9.80298 7.61643 9.41639 7.93291 8.97217 7.93291H6.78539C6.49289 7.93291 6.25 8.17441 6.25 8.48265V8.76764C6.25 9.06837 6.49289 9.31737 6.78539 9.31737H19.2153C19.5071 9.31737 19.75 9.06837 19.75 8.76764V8.48265Z" fill="white"/>
</svg>
